<?xml version="1.0" encoding="iso-8859-1"?>
<!-- Uploaded to: SVG Repo, www.svgrepo.com, Generator: SVG Repo Mixer Tools -->
<svg height="800px" width="800px" version="1.1" id="Layer_1" xmlns="http://www.w3.org/2000/svg" xmlns:xlink="http://www.w3.org/1999/xlink" 
	 viewBox="0 0 512 512" xml:space="preserve">
<path style="fill:#EFEFEF;" d="M477.313,220.662c0,0.089,0,0.178-0.001,0.268c-0.086,13.099-11.014,23.553-24.113,23.553H73.658
	c-4.902,0-9.706-1.466-13.725-4.274c-15.258-10.662-25.245-28.354-25.245-48.383c0-28.635,20.41-52.505,47.478-57.858
	c-0.677-4.852-1.029-9.817-1.029-14.856c0-59.551,48.268-107.82,107.82-107.82s107.82,48.268,107.82,107.82
	c0,6.532-0.577,12.913-1.693,19.119c13.979-20.624,37.599-34.163,64.378-34.163c42.513,0,77.053,34.126,77.718,76.477h0.012
	C459.347,180.543,477.313,198.509,477.313,220.662z"/>
<g>
	<path style="fill:#0EDDF0;" d="M133.751,359.148c0,13.719-11.122,24.841-24.841,24.841s-24.841-11.122-24.841-24.841
		s24.841-47.424,24.841-47.424S133.751,345.429,133.751,359.148z"/>
	<path style="fill:#0EDDF0;" d="M176.053,475.867c0,13.719-11.122,24.841-24.841,24.841c-13.719,0-24.841-11.122-24.841-24.841
		c0-13.719,24.841-47.424,24.841-47.424S176.053,462.148,176.053,475.867z"/>
	<path style="fill:#0EDDF0;" d="M394.839,359.148c0,13.719-11.122,24.841-24.841,24.841s-24.841-11.122-24.841-24.841
		s24.841-47.424,24.841-47.424S394.839,345.429,394.839,359.148z"/>
	<path style="fill:#0EDDF0;" d="M437.142,475.867c0,13.719-11.122,24.841-24.841,24.841s-24.841-11.122-24.841-24.841
		c0-13.719,24.841-47.424,24.841-47.424S437.142,462.148,437.142,475.867z"/>
</g>
<g>
	<path style="fill:#231F20;" d="M447.757,170.344c-2.513-19.672-11.482-37.842-25.816-51.964
		c-16.759-16.51-38.946-25.604-62.477-25.604c-18.851,0-36.887,5.946-51.788,16.607C302.71,48.237,251.36,0,188.958,0
		C123.28,0,69.847,53.433,69.847,119.111c0,2.172,0.06,4.351,0.178,6.523c-27.541,9.837-46.629,36.222-46.629,66.192
		c0,22.934,11.241,44.48,30.069,57.638c5.908,4.127,12.89,6.31,20.192,6.31h379.54c19.399,0,35.28-15.598,35.403-34.705l0.002-0.406
		C488.605,195.937,471.059,175.232,447.757,170.344z M466.021,220.857c-0.044,6.801-5.796,12.335-12.821,12.335H73.658
		c-2.652,0-5.161-0.775-7.257-2.237c-12.788-8.937-20.422-23.564-20.422-39.127c0-22.708,16.14-42.384,38.377-46.783
		c5.874-1.161,9.819-6.706,8.993-12.636c-0.61-4.372-0.919-8.846-0.919-13.296c0-53.228,43.303-96.53,96.528-96.53
		c53.227,0,96.528,43.303,96.528,96.528c0,5.771-0.509,11.532-1.514,17.12c-0.944,5.248,1.914,10.443,6.853,12.456
		c4.942,2.009,10.614,0.292,13.606-4.122c12.397-18.288,32.969-29.206,55.032-29.206c36.063,0,65.862,29.322,66.428,65.363
		c0.097,6.166,5.135,11.114,11.303,11.114c15.895,0,28.827,12.932,28.827,28.827V220.857z"/>
	<path style="fill:#231F20;" d="M196.493,45.547c-6.21-0.629-11.745,3.884-12.377,10.09c-0.632,6.204,3.885,11.745,10.09,12.377
		c26.29,2.676,46.115,24.644,46.115,51.098c0,6.235,5.056,11.291,11.291,11.291s11.291-5.056,11.291-11.291
		C262.904,81.026,234.353,49.4,196.493,45.547z"/>
	<path style="fill:#231F20;" d="M145.337,59.431c-0.877,0.642-1.741,1.304-2.589,1.986c-4.862,3.906-5.637,11.013-1.731,15.875
		c2.231,2.778,5.505,4.22,8.81,4.22c2.482,0,4.981-0.814,7.065-2.489c0.588-0.472,1.187-0.93,1.795-1.378
		c5.03-3.687,6.119-10.752,2.432-15.782C157.433,56.833,150.365,55.745,145.337,59.431z"/>
	<path style="fill:#231F20;" d="M290.167,348.055c-3.968-2.794-9.277-2.742-13.187,0.132l-29.693,21.815l19.641-75.358
		c1.573-6.035-2.045-12.203-8.078-13.774c-6.035-1.576-12.203,2.045-13.774,8.078l-27.664,106.14
		c-1.205,4.626,0.632,9.51,4.588,12.193c3.955,2.683,9.171,2.586,13.025-0.245l28.199-20.717l-30.462,102.11
		c-1.782,5.975,1.617,12.265,7.593,14.048c1.076,0.321,2.163,0.474,3.232,0.474c4.864,0,9.354-3.168,10.816-8.068l40.085-134.368
		C295.872,355.864,294.133,350.849,290.167,348.055z"/>
	<path style="fill:#231F20;" d="M145.042,359.148c0-16.174-20.699-45.516-27.043-54.123c-2.128-2.888-5.502-4.592-9.09-4.592
		c-3.587,0-6.961,1.705-9.09,4.592c-6.344,8.607-27.043,37.948-27.043,54.123c0,19.924,16.209,36.133,36.133,36.133
		S145.042,379.072,145.042,359.148z M108.91,372.698c-7.472,0-13.55-6.078-13.55-13.55c0-3.911,5.725-15.243,13.553-27.481
		c7.825,12.23,13.546,23.56,13.546,27.481C122.46,366.619,116.381,372.698,108.91,372.698z"/>
	<path style="fill:#231F20;" d="M151.212,417.152c-3.587,0-6.961,1.705-9.09,4.592c-6.344,8.607-27.043,37.948-27.043,54.123
		c0,19.924,16.209,36.133,36.133,36.133s36.133-16.209,36.133-36.133c0-16.174-20.699-45.516-27.043-54.123
		C158.173,418.857,154.799,417.152,151.212,417.152z M151.212,489.417c-7.472,0-13.55-6.078-13.55-13.55
		c0-3.911,5.725-15.243,13.553-27.481c7.825,12.23,13.546,23.56,13.546,27.481C164.762,483.34,158.684,489.417,151.212,489.417z"/>
	<path style="fill:#231F20;" d="M406.131,359.148c0-16.174-20.699-45.516-27.043-54.123c-2.128-2.888-5.502-4.592-9.09-4.592
		c-3.587,0-6.961,1.705-9.09,4.592c-6.344,8.607-27.043,37.948-27.043,54.123c0,19.924,16.209,36.133,36.133,36.133
		C389.922,395.28,406.131,379.072,406.131,359.148z M369.998,372.698c-7.472,0-13.55-6.078-13.55-13.55
		c0-3.911,5.725-15.243,13.553-27.481c7.825,12.23,13.546,23.56,13.546,27.481C383.548,366.619,377.47,372.698,369.998,372.698z"/>
	<path style="fill:#231F20;" d="M412.301,417.152c-3.587,0-6.961,1.705-9.09,4.592c-6.344,8.607-27.043,37.948-27.043,54.123
		c0,19.924,16.209,36.133,36.133,36.133c19.924,0,36.133-16.209,36.133-36.133c0-16.174-20.699-45.516-27.043-54.123
		C419.262,418.857,415.887,417.152,412.301,417.152z M412.301,489.417c-7.472,0-13.55-6.078-13.55-13.55
		c0-3.911,5.725-15.243,13.553-27.481c7.825,12.23,13.546,23.56,13.546,27.481C425.85,483.34,419.772,489.417,412.301,489.417z"/>
</g>
</svg>