<?xml version="1.0" encoding="iso-8859-1"?>
<!-- Uploaded to: SVG Repo, www.svgrepo.com, Generator: SVG Repo Mixer Tools -->
<svg height="800px" width="800px" version="1.1" id="Layer_1" xmlns="http://www.w3.org/2000/svg" xmlns:xlink="http://www.w3.org/1999/xlink" 
	 viewBox="0 0 512 512" xml:space="preserve">
<g>
	<path style="fill:#1A6FB0;" d="M186.832,369.77c0,8.398-6.809,15.207-15.207,15.207s-15.207-6.809-15.207-15.207
		s15.207-25.187,15.207-25.187S186.832,361.372,186.832,369.77z"/>
	<path style="fill:#1A6FB0;" d="M357.213,369.77c0,8.398-6.809,15.207-15.207,15.207s-15.207-6.809-15.207-15.207
		s15.207-25.187,15.207-25.187S357.213,361.372,357.213,369.77z"/>
	<path style="fill:#1A6FB0;" d="M272.023,414.14c0,8.398-6.809,15.207-15.207,15.207c-8.398,0-15.207-6.809-15.207-15.207
		s15.207-25.187,15.207-25.187S272.023,405.741,272.023,414.14z"/>
	<path style="fill:#1A6FB0;" d="M446.98,169.865c-5.781,0-11.357,0.864-16.619,2.452c0.001-0.161,0.012-0.319,0.012-0.482
		c0-49.254-39.928-89.182-89.182-89.182s-89.182,39.928-89.182,89.182c0,0.161,0.011,0.32,0.012,0.482
		c-5.262-1.59-10.838-2.452-16.619-2.452c-31.71,0-57.417,25.707-57.417,57.417s25.707,57.418,57.417,57.418H446.98
		c31.71,0,57.417-25.707,57.417-57.418C504.397,195.572,478.69,169.865,446.98,169.865z"/>
	<path style="fill:#1A6FB0;" d="M276.598,169.865c-5.781,0-11.357,0.864-16.619,2.452c0.001-0.161,0.012-0.319,0.012-0.482
		c0-49.254-39.928-89.182-89.182-89.182s-89.182,39.928-89.182,89.182c0,0.161,0.011,0.32,0.012,0.482
		c-5.262-1.59-10.839-2.452-16.619-2.452c-31.71,0-57.417,25.707-57.417,57.417S33.31,284.7,65.02,284.7h211.578
		c31.71,0,57.417-25.707,57.417-57.418C334.016,195.572,308.309,169.865,276.598,169.865z"/>
</g>
<path style="fill:#D1E7F8;" d="M361.339,184.176c-5.781,0-11.357,0.864-16.619,2.452c0.001-0.161,0.012-0.319,0.012-0.481
	c0-49.254-39.928-89.182-89.182-89.182s-89.182,39.928-89.182,89.182c0,0.161,0.011,0.319,0.012,0.481
	c-5.262-1.589-10.838-2.452-16.619-2.452c-31.71,0-57.417,25.707-57.417,57.417s25.707,57.417,57.417,57.417h211.578
	c31.71,0,57.417-25.707,57.417-57.417S393.05,184.176,361.339,184.176z"/>
<path style="fill:#96C8EF;" d="M190.905,220.883c5.781,0,11.357,0.863,16.619,2.452c-0.001-0.161-0.012-0.319-0.012-0.482
	c0-49.254,39.928-89.182,89.182-89.182c12.77,0,24.909,2.69,35.891,7.524c-15.47-26.457-44.175-44.231-77.035-44.231
	c-49.254,0-89.182,39.928-89.182,89.182c0,0.161,0.011,0.32,0.012,0.482c-5.262-1.59-10.838-2.452-16.619-2.452
	c-31.71,0-57.417,25.707-57.417,57.418c0,27.25,18.989,50.049,44.452,55.929c-2.136-6.011-3.308-12.479-3.308-19.221
	C133.488,246.59,159.194,220.883,190.905,220.883z"/>
<g>
	<path style="fill:#97C7ED;" d="M291.285,271.861H186.016c-4.199,0-7.603-3.403-7.603-7.603s3.404-7.603,7.603-7.603h105.268
		c4.199,0,7.603,3.403,7.603,7.603S295.484,271.861,291.285,271.861z"/>
	<path style="fill:#97C7ED;" d="M351.098,271.861h-25.115c-4.199,0-7.603-3.403-7.603-7.603s3.404-7.603,7.603-7.603h25.115
		c4.199,0,7.603,3.403,7.603,7.603S355.298,271.861,351.098,271.861z"/>
</g>
<path d="M446.979,162.261c-3.154,0-6.296,0.228-9.403,0.681c-0.968-10.7-3.692-21.057-8.134-30.894
	c-1.728-3.827-6.23-5.528-10.059-3.802c-3.827,1.729-5.529,6.232-3.801,10.059c4.768,10.561,7.186,21.842,7.185,33.5
	c-0.006,0.154-0.01,0.31-0.011,0.465c-0.015,2.414,1.118,4.692,3.052,6.137c1.934,1.445,4.438,1.886,6.75,1.188
	c4.676-1.412,9.528-2.128,14.421-2.128c27.468,0,49.815,22.347,49.815,49.815s-22.346,49.815-49.815,49.815H415.77
	c6.686-10.216,10.589-22.409,10.589-35.503c0-35.853-29.168-65.021-65.02-65.021c-3.156,0-6.3,0.229-9.409,0.682
	c-3.032-33.14-22.855-61.479-50.851-76.472c12.16-6.906,25.816-10.525,40.112-10.525c9.918,0,19.606,1.758,28.796,5.225
	c3.931,1.483,8.316-0.499,9.798-4.429c1.482-3.928-0.501-8.315-4.429-9.797c-10.911-4.118-22.406-6.205-34.165-6.205
	c-20.789,0-40.447,6.437-57.087,18.633c-9.032-2.795-18.615-4.321-28.553-4.321c-9.705,0-19.074,1.449-27.921,4.119
	c-16.583-12.069-36.144-18.431-56.82-18.431c-50.371,0-91.878,38.675-96.38,87.892c-3.108-0.453-6.252-0.682-9.409-0.682
	C29.168,162.261,0,191.43,0,227.282s29.168,65.021,65.02,65.021h44.11c11.14,8.944,25.267,14.312,40.631,14.312h211.578
	c15.364,0,29.491-5.368,40.631-14.312h45.009c35.853,0,65.021-29.168,65.021-65.021S482.832,162.261,446.979,162.261z
	 M149.761,291.409c-27.468,0-49.814-22.347-49.814-49.815c0-4.2-3.404-7.603-7.603-7.603s-7.603,3.403-7.603,7.603
	c0,13.094,3.904,25.287,10.589,35.503H65.02c-27.468,0-49.814-22.347-49.814-49.815s22.346-49.815,49.814-49.815
	c4.895,0,9.747,0.716,14.422,2.128c2.309,0.697,4.815,0.257,6.75-1.188c1.933-1.446,3.066-3.724,3.052-6.137
	c-0.001-0.155-0.005-0.311-0.012-0.434c0-44.983,36.596-81.58,81.579-81.58c14.124,0,27.626,3.529,39.677,10.276
	c-28.242,14.926-48.268,43.398-51.316,76.723c-3.108-0.453-6.252-0.682-9.409-0.682c-20.508,0-40.049,9.849-52.273,26.346
	c-2.5,3.374-1.791,8.136,1.583,10.636c3.374,2.499,8.136,1.791,10.636-1.584c9.508-12.833,24.108-20.193,40.055-20.193
	c4.894,0,9.746,0.716,14.421,2.128c2.307,0.697,4.807,0.259,6.741-1.181c1.932-1.441,3.068-3.71,3.061-6.121
	c0-0.163-0.005-0.325-0.012-0.457c0-44.983,36.596-81.579,81.579-81.579s81.579,36.596,81.578,81.547
	c-0.006,0.155-0.01,0.31-0.011,0.466c-0.015,2.414,1.118,4.692,3.052,6.137c1.932,1.445,4.437,1.885,6.75,1.188
	c4.676-1.412,9.528-2.128,14.422-2.128c27.468,0,49.814,22.347,49.814,49.815s-22.346,49.815-49.814,49.815H149.761z"/>
<path d="M391.163,107.35c4.309,3.344,8.301,7.137,11.862,11.272c1.503,1.747,3.627,2.641,5.764,2.641
	c1.757,0,3.523-0.606,4.958-1.842c3.182-2.74,3.539-7.541,0.799-10.723c-4.221-4.902-8.953-9.398-14.061-13.362
	c-3.317-2.575-8.093-1.972-10.668,1.344C387.243,99.999,387.845,104.776,391.163,107.35z"/>
<path d="M171.625,392.581c-12.578,0-22.81-10.233-22.81-22.81c0-10.513,13.146-25.842,17.175-30.291
	c1.442-1.591,3.488-2.499,5.636-2.499s4.194,0.908,5.636,2.499c4.029,4.449,17.175,19.778,17.175,30.291
	C194.436,382.348,184.203,392.581,171.625,392.581z M171.628,356.51c-4.306,5.688-7.525,11.152-7.606,13.274
	c0,4.18,3.41,7.59,7.603,7.59c4.193,0,7.603-3.41,7.603-7.603C179.147,367.649,175.93,362.19,171.628,356.51z"/>
<path d="M342.006,392.581c-12.578,0-22.81-10.233-22.81-22.81c0-10.513,13.146-25.842,17.175-30.291
	c1.442-1.591,3.488-2.499,5.636-2.499s4.194,0.908,5.636,2.499c4.029,4.449,17.175,19.778,17.175,30.291
	C364.816,382.348,354.584,392.581,342.006,392.581z M342.01,356.51c-4.306,5.688-7.525,11.152-7.606,13.274
	c0,4.18,3.41,7.59,7.603,7.59c4.193,0,7.603-3.41,7.603-7.603C349.527,367.649,346.311,362.19,342.01,356.51z"/>
<path d="M256.816,436.949c-12.578,0-22.81-10.233-22.81-22.81c0-10.513,13.146-25.842,17.175-30.291
	c1.442-1.591,3.488-2.499,5.636-2.499c2.147,0,4.194,0.908,5.636,2.499c4.029,4.449,17.175,19.778,17.175,30.291
	C279.626,426.717,269.393,436.949,256.816,436.949z M256.819,400.879c-4.306,5.688-7.525,11.152-7.606,13.274
	c0,4.18,3.41,7.59,7.603,7.59s7.603-3.41,7.603-7.603C264.337,412.018,261.121,406.56,256.819,400.879z"/>
</svg>